<svg version="1.1" id="Layer_1" xmlns="http://www.w3.org/2000/svg" xmlns:xlink="http://www.w3.org/1999/xlink" x="0px" y="0px"
	 width="100%" viewBox="0 0 570 570" enable-background="new 0 0 570 570" xml:space="preserve">
<path fill="#FFFFFF" opacity="0.000000" stroke="none" 
	d="
M336.000000,571.000000 
	C224.000000,571.000000 112.500000,571.000000 1.000000,571.000000 
	C1.000000,381.000000 1.000000,191.000000 1.000000,1.000000 
	C191.000000,1.000000 381.000000,1.000000 571.000000,1.000000 
	C571.000000,191.000000 571.000000,381.000000 571.000000,571.000000 
	C492.833344,571.000000 414.666656,571.000000 336.000000,571.000000 
M423.576843,496.067474 
	C455.021210,477.457550 487.863007,461.201813 518.675171,440.307098 
	C517.497986,439.522919 517.015808,439.132446 516.476318,438.852264 
	C489.006042,424.585632 461.532501,410.325256 434.054474,396.073517 
	C429.829376,393.882172 425.806152,394.380981 421.726532,396.726562 
	C400.222382,409.090302 378.678711,421.385437 357.130310,433.671906 
	C350.959808,437.190186 344.727448,440.600067 337.707153,444.514832 
	C337.707153,441.989990 337.707123,440.398315 337.707123,438.806641 
	C337.707123,427.807434 337.857971,416.805176 337.634155,405.810547 
	C337.542480,401.307190 338.901703,397.947052 342.143555,394.758118 
	C358.182159,378.981384 373.991241,362.971558 389.972168,347.135742 
	C393.727509,343.414490 395.833588,339.256531 395.816803,333.873322 
	C395.738251,308.708740 395.754425,283.543732 395.804901,258.379028 
	C395.814850,253.422318 394.220062,249.253479 390.610382,245.858658 
	C387.974945,243.380142 385.340942,240.900131 382.382416,238.115967 
	C404.763794,223.062347 426.354095,208.540817 448.754211,193.474609 
	C448.754211,195.887329 448.751740,197.163559 448.754639,198.439804 
	C448.872101,249.756454 449.034058,301.073120 449.047150,352.389801 
	C449.048615,358.211426 451.102112,362.274628 456.366272,364.840912 
	C479.696411,376.214325 502.993835,387.654907 526.317017,399.042633 
	C527.400330,399.571594 528.617432,399.826508 530.341553,400.397644 
	C530.341553,397.391876 530.341003,395.073517 530.341675,392.755127 
	C530.362244,322.261353 530.217041,251.766876 530.505676,181.274200 
	C530.591248,160.390472 522.108398,144.353271 505.926575,131.868195 
	C499.039948,126.554871 496.692505,126.516922 489.389221,131.363083 
	C447.894897,158.896957 406.400452,186.430618 364.898712,213.953232 
	C363.692932,214.752869 362.405243,215.429001 360.815460,216.362549 
	C352.923859,208.388321 345.128326,200.649979 337.503418,192.747009 
	C333.775238,188.882904 329.372803,187.227142 324.096741,187.236328 
	C299.431946,187.279221 274.766968,187.287384 250.102234,187.231064 
	C244.633423,187.218567 240.104492,188.931549 236.279861,192.965714 
	C228.729889,200.929291 220.995193,208.717758 213.192825,216.726532 
	C209.212555,214.109985 205.896179,211.947952 202.597763,209.758896 
	C162.909439,183.418640 123.228378,157.067444 83.532440,130.738663 
	C77.528915,126.756752 74.784920,126.811073 69.036598,131.038376 
	C52.092014,143.499420 43.118462,159.871490 43.179996,181.305862 
	C43.382362,251.798370 43.347862,322.291840 43.252186,392.784729 
	C43.213886,421.003723 55.257175,442.037903 79.710960,456.023010 
	C140.110565,490.565521 200.511093,525.106384 260.920349,559.632080 
	C262.307343,560.424805 263.802216,561.028748 265.857147,562.013123 
	C265.857147,559.555786 265.857117,557.770752 265.857147,555.985718 
	C265.857910,476.991516 265.877289,397.997314 265.825592,319.003143 
	C265.821259,312.359985 266.647186,306.034210 270.506561,300.432556 
	C278.997986,288.107727 294.469391,287.930084 303.167267,300.059265 
	C307.019135,305.430725 308.145508,311.522583 308.141846,318.027954 
	C308.096985,397.355469 308.112732,476.683014 308.112762,556.010559 
	C308.112762,557.799316 308.112762,559.588074 308.112762,562.135437 
	C346.786316,540.005005 384.861847,518.216736 423.576843,496.067474 
M335.042633,128.454803 
	C347.383850,135.368607 359.807068,142.141663 372.027863,149.262177 
	C377.268097,152.315430 381.677582,152.148651 386.802704,148.804840 
	C404.787720,137.070770 423.001526,125.687515 441.116302,114.151985 
	C447.242615,110.250717 453.332764,106.292717 459.929260,102.045235 
	C458.686127,101.197655 458.076233,100.717674 457.409821,100.336639 
	C409.446503,72.912453 361.493805,45.469654 313.503479,18.092819 
	C295.445557,7.791391 277.461426,8.217967 259.462036,18.544790 
	C212.114975,45.709370 164.702362,72.759735 117.325729,99.872826 
	C116.275017,100.474121 115.342331,101.281647 113.954910,102.280807 
	C138.502350,117.868904 162.629532,132.970047 186.480209,148.495956 
	C192.192001,152.214127 196.874207,152.155487 202.568832,148.857193 
	C223.591568,136.680893 244.811142,124.845032 265.895630,112.774467 
	C279.815094,104.805763 293.665924,104.612755 307.590363,112.622612 
	C316.534698,117.767708 325.469055,122.930077 335.042633,128.454803 
z"/>
<path fill="#242424" opacity="1.000000" stroke="none" 
	d="
M423.257080,496.247986 
	C384.861847,518.216736 346.786316,540.005005 308.112762,562.135437 
	C308.112762,559.588074 308.112762,557.799316 308.112762,556.010559 
	C308.112732,476.683014 308.096985,397.355469 308.141846,318.027954 
	C308.145508,311.522583 307.019135,305.430725 303.167267,300.059265 
	C294.469391,287.930084 278.997986,288.107727 270.506561,300.432556 
	C266.647186,306.034210 265.821259,312.359985 265.825592,319.003143 
	C265.877289,397.997314 265.857910,476.991516 265.857147,555.985718 
	C265.857117,557.770752 265.857147,559.555786 265.857147,562.013123 
	C263.802216,561.028748 262.307343,560.424805 260.920349,559.632080 
	C200.511093,525.106384 140.110565,490.565521 79.710960,456.023010 
	C55.257175,442.037903 43.213886,421.003723 43.252186,392.784729 
	C43.347862,322.291840 43.382362,251.798370 43.179996,181.305862 
	C43.118462,159.871490 52.092014,143.499420 69.036598,131.038376 
	C74.784920,126.811073 77.528915,126.756752 83.532440,130.738663 
	C123.228378,157.067444 162.909439,183.418640 202.597763,209.758896 
	C205.896179,211.947952 209.212555,214.109985 213.192825,216.726532 
	C220.995193,208.717758 228.729889,200.929291 236.279861,192.965714 
	C240.104492,188.931549 244.633423,187.218567 250.102234,187.231064 
	C274.766968,187.287384 299.431946,187.279221 324.096741,187.236328 
	C329.372803,187.227142 333.775238,188.882904 337.503418,192.747009 
	C345.128326,200.649979 352.923859,208.388321 360.815460,216.362549 
	C362.405243,215.429001 363.692932,214.752869 364.898712,213.953232 
	C406.400452,186.430618 447.894897,158.896957 489.389221,131.363083 
	C496.692505,126.516922 499.039948,126.554871 505.926575,131.868195 
	C522.108398,144.353271 530.591248,160.390472 530.505676,181.274200 
	C530.217041,251.766876 530.362244,322.261353 530.341675,392.755127 
	C530.341003,395.073517 530.341553,397.391876 530.341553,400.397644 
	C528.617432,399.826508 527.400330,399.571594 526.317017,399.042633 
	C502.993835,387.654907 479.696411,376.214325 456.366272,364.840912 
	C451.102112,362.274628 449.048615,358.211426 449.047150,352.389801 
	C449.034058,301.073120 448.872101,249.756454 448.754639,198.439804 
	C448.751740,197.163559 448.754211,195.887329 448.754211,193.474609 
	C426.354095,208.540817 404.763794,223.062347 382.382416,238.115967 
	C385.340942,240.900131 387.974945,243.380142 390.610382,245.858658 
	C394.220062,249.253479 395.814850,253.422318 395.804901,258.379028 
	C395.754425,283.543732 395.738251,308.708740 395.816803,333.873322 
	C395.833588,339.256531 393.727509,343.414490 389.972168,347.135742 
	C373.991241,362.971558 358.182159,378.981384 342.143555,394.758118 
	C338.901703,397.947052 337.542480,401.307190 337.634155,405.810547 
	C337.857971,416.805176 337.707123,427.807434 337.707123,438.806641 
	C337.707123,440.398315 337.707153,441.989990 337.707153,444.514832 
	C344.727448,440.600067 350.959808,437.190186 357.130310,433.671906 
	C378.678711,421.385437 400.222382,409.090302 421.726532,396.726562 
	C425.806152,394.380981 429.829376,393.882172 434.054474,396.073517 
	C461.532501,410.325256 489.006042,424.585632 516.476318,438.852264 
	C517.015808,439.132446 517.497986,439.522919 518.675171,440.307098 
	C487.863007,461.201813 455.021210,477.457550 423.257080,496.247986 
M178.226562,256.102692 
	C178.779449,247.676956 186.447937,244.088303 190.953720,237.789124 
	C169.080032,223.084641 147.401367,208.511246 125.366188,193.698196 
	C125.153465,195.039551 125.056511,195.367599 125.055740,195.695877 
	C124.936501,246.496506 124.750862,297.297150 124.745743,348.097778 
	C124.743523,370.109894 134.171082,386.762817 153.601486,397.640045 
	C170.880814,407.313110 188.003922,417.265045 205.206833,427.074860 
	C215.267853,432.812103 225.350052,438.512238 236.202911,444.671844 
	C236.202911,430.714050 236.080200,417.772095 236.275757,404.834961 
	C236.336456,400.818878 234.963486,397.913544 232.175049,395.150940 
	C216.078918,379.204102 200.145584,363.092804 184.039398,347.156250 
	C179.990555,343.150024 178.081741,338.653717 178.112701,332.922485 
	C178.249344,307.613647 178.173782,282.303650 178.226562,256.102692 
M207.758102,323.176147 
	C209.486099,326.831146 210.512390,331.105164 213.081924,334.017761 
	C219.242737,341.001160 226.118134,347.355469 232.735229,353.933411 
	C233.577728,354.770905 234.599762,355.427856 236.204666,356.693909 
	C236.204666,343.297791 236.000473,330.832214 236.295212,318.378418 
	C236.432129,312.593658 236.870880,306.658020 238.320251,301.089417 
	C244.993973,275.448883 267.093475,259.621063 292.379456,261.910767 
	C314.963226,263.955719 335.126526,284.529755 337.029724,308.742035 
	C338.123566,322.658020 337.528503,336.706299 337.710175,350.694855 
	C337.732880,352.439789 337.856812,354.183411 337.933838,355.927673 
	C338.316742,356.150543 338.699646,356.373413 339.082550,356.596283 
	C346.355133,349.154999 353.549561,341.634979 360.933380,334.305756 
	C364.599884,330.666351 366.284546,326.522156 366.247955,321.356201 
	C366.128845,304.528107 366.115356,287.697968 366.255249,270.870209 
	C366.298431,265.673492 364.531586,261.545593 360.893707,257.937164 
	C348.945648,246.086014 337.034821,234.196518 325.205933,222.226608 
	C321.447845,218.423691 317.129272,216.810974 311.784271,216.863617 
	C295.290833,217.026047 278.793213,217.058685 262.300690,216.856262 
	C256.527222,216.785400 252.103088,218.799759 248.129135,222.849182 
	C236.925812,234.265350 225.682739,245.649475 214.182053,256.763428 
	C209.500870,261.287170 207.546661,266.335022 207.631348,272.761902 
	C207.848679,289.254730 207.708267,305.752258 207.758102,323.176147 
z"/>
<path fill="#242424" opacity="1.000000" stroke="none" 
	d="
M334.725281,128.269745 
	C325.469055,122.930077 316.534698,117.767708 307.590363,112.622612 
	C293.665924,104.612755 279.815094,104.805763 265.895630,112.774467 
	C244.811142,124.845032 223.591568,136.680893 202.568832,148.857193 
	C196.874207,152.155487 192.192001,152.214127 186.480209,148.495956 
	C162.629532,132.970047 138.502350,117.868904 113.954910,102.280807 
	C115.342331,101.281647 116.275017,100.474121 117.325729,99.872826 
	C164.702362,72.759735 212.114975,45.709370 259.462036,18.544790 
	C277.461426,8.217967 295.445557,7.791391 313.503479,18.092819 
	C361.493805,45.469654 409.446503,72.912453 457.409821,100.336639 
	C458.076233,100.717674 458.686127,101.197655 459.929260,102.045235 
	C453.332764,106.292717 447.242615,110.250717 441.116302,114.151985 
	C423.001526,125.687515 404.787720,137.070770 386.802704,148.804840 
	C381.677582,152.148651 377.268097,152.315430 372.027863,149.262177 
	C359.807068,142.141663 347.383850,135.368607 334.725281,128.269745 
z"/>
<path fill="#FFFFFF" opacity="0.000000" stroke="none" 
	d="
M178.200836,256.548401 
	C178.173782,282.303650 178.249344,307.613647 178.112701,332.922485 
	C178.081741,338.653717 179.990555,343.150024 184.039398,347.156250 
	C200.145584,363.092804 216.078918,379.204102 232.175049,395.150940 
	C234.963486,397.913544 236.336456,400.818878 236.275757,404.834961 
	C236.080200,417.772095 236.202911,430.714050 236.202911,444.671844 
	C225.350052,438.512238 215.267853,432.812103 205.206833,427.074860 
	C188.003922,417.265045 170.880814,407.313110 153.601486,397.640045 
	C134.171082,386.762817 124.743523,370.109894 124.745743,348.097778 
	C124.750862,297.297150 124.936501,246.496506 125.055740,195.695877 
	C125.056511,195.367599 125.153465,195.039551 125.366188,193.698196 
	C147.401367,208.511246 169.080032,223.084641 190.953720,237.789124 
	C186.447937,244.088303 178.779449,247.676956 178.200836,256.548401 
z"/>
<path fill="#FFFFFF" opacity="0.000000" stroke="none" 
	d="
M207.734482,322.712036 
	C207.708267,305.752258 207.848679,289.254730 207.631348,272.761902 
	C207.546661,266.335022 209.500870,261.287170 214.182053,256.763428 
	C225.682739,245.649475 236.925812,234.265350 248.129135,222.849182 
	C252.103088,218.799759 256.527222,216.785400 262.300690,216.856262 
	C278.793213,217.058685 295.290833,217.026047 311.784271,216.863617 
	C317.129272,216.810974 321.447845,218.423691 325.205933,222.226608 
	C337.034821,234.196518 348.945648,246.086014 360.893707,257.937164 
	C364.531586,261.545593 366.298431,265.673492 366.255249,270.870209 
	C366.115356,287.697968 366.128845,304.528107 366.247955,321.356201 
	C366.284546,326.522156 364.599884,330.666351 360.933380,334.305756 
	C353.549561,341.634979 346.355133,349.154999 339.082550,356.596283 
	C338.699646,356.373413 338.316742,356.150543 337.933838,355.927673 
	C337.856812,354.183411 337.732880,352.439789 337.710175,350.694855 
	C337.528503,336.706299 338.123566,322.658020 337.029724,308.742035 
	C335.126526,284.529755 314.963226,263.955719 292.379456,261.910767 
	C267.093475,259.621063 244.993973,275.448883 238.320251,301.089417 
	C236.870880,306.658020 236.432129,312.593658 236.295212,318.378418 
	C236.000473,330.832214 236.204666,343.297791 236.204666,356.693909 
	C234.599762,355.427856 233.577728,354.770905 232.735229,353.933411 
	C226.118134,347.355469 219.242737,341.001160 213.081924,334.017761 
	C210.512390,331.105164 209.486099,326.831146 207.734482,322.712036 
z"/>
</svg>